<svg width="1440" height="638" viewBox="0 0 1440 638" fill="none" xmlns="http://www.w3.org/2000/svg">
<g clip-path="url(#clip0_107_7971)">
<rect width="1440" height="638" fill="#0B63E5"/>
<g opacity="0.55">
<path d="M1244.17 602.156L1161.75 680.816L1168.97 568.684L1244.17 602.156Z" fill="#1758C3"/>
<path d="M1235.48 -60.9153V168.032L1430.71 -60.9153L1235.48 -60.9153Z" fill="#3C82EA"/>
<path d="M1384.55 318.976V408.117L1286.94 318.976H1384.55Z" fill="#3C82EA"/>
<path d="M1431.2 379.639V468.781L1333.59 379.639H1431.2Z" fill="#3C82EA"/>
<path d="M1479.75 290.457V388.071L1382.13 290.457H1479.75Z" fill="#1758C3"/>
<path d="M1531.67 221.593V319.208L1434.06 221.593H1531.67Z" fill="#1758C3"/>
<path d="M1535.55 461.406V559.02L1437.94 461.406H1535.55Z" fill="#1758C3"/>
<path d="M1333.1 21.5369V119.151L1235.49 21.5369L1333.1 21.5369Z" fill="#1758C3"/>
<path d="M1237.96 608.24V706.112L1140.15 608.24H1237.96Z" fill="#3C82EA"/>
<path d="M232.196 412.371V461.407L183.199 412.371H232.196Z" fill="#1758C3"/>
<path d="M232.196 363.336V412.372L183.199 363.336H232.196Z" fill="#1758C3"/>
<path d="M183.198 412.372V363.335L232.196 412.372H183.198Z" fill="#3C82EA"/>
<path d="M-43.3556 129.911L-43.3556 80.8761L5.64258 129.911H-43.3556Z" fill="#3C82EA"/>
<path d="M-43.3556 80.8911L-43.3556 31.8561L5.64258 80.8911H-43.3556Z" fill="#3C82EA"/>
<path d="M-43.3556 31.8547L-43.3556 -17.1803L5.64258 31.8547L-43.3556 31.8547Z" fill="#3C82EA"/>
<path d="M134.2 314.306V363.343L85.2035 314.306H134.2Z" fill="#1758C3"/>
<path d="M134.197 363.336V314.301L183.194 363.336H134.197Z" fill="#3C82EA"/>
<path d="M182.997 225.034V175.999L134 225.034H182.997Z" fill="#3C82EA"/>
<path d="M85.9957 270.03V220.995L134.993 270.03H85.9957Z" fill="#3C82EA"/>
<path d="M602.391 -27.4308V21.605L553.394 -27.4308L602.391 -27.4308Z" fill="#1758C3"/>
<path d="M504.391 21.2153V-27.8205L553.389 21.2153L504.391 21.2153Z" fill="#3C82EA"/>
<path d="M602.394 21.2153V-27.8205L651.393 21.2153L602.394 21.2153Z" fill="#3C82EA"/>
<path d="M232.196 594.57V643.605L183.199 594.57H232.196Z" fill="#3C82EA"/>
<path d="M232.195 552.492V601.527L183.198 552.492H232.195Z" fill="#3C82EA"/>
<path d="M42.9971 555.997L42.9971 605.032L-6.00035 555.997H42.9971Z" fill="#3C82EA"/>
<path d="M232.194 643.597V552.515L323.278 643.597H232.194Z" fill="#1758C3"/>
<path d="M92.1117 595.161L92.1117 504.077L183.194 595.161H92.1117Z" fill="#1758C3"/>
<path d="M92.1117 686.266L92.1117 595.183L183.194 686.266H92.1117Z" fill="#1758C3"/>
<path d="M1333.1 -60.9037V21.5386L1250.66 -60.9037L1333.1 -60.9037Z" fill="#1758C3"/>
<path d="M1430.62 70.3455V119.25L1479.53 70.3455H1430.62Z" fill="#3C82EA"/>
<path d="M1450.91 234.993V283.898L1402 234.993H1450.91Z" fill="#3C82EA"/>
<path d="M1421.91 509.992V558.897L1373 509.992H1421.91Z" fill="#3C82EA"/>
<path d="M1286.94 412.502V461.408L1238.03 412.502H1286.94Z" fill="#3C82EA"/>
<path d="M1430.62 -9.07203V39.8335L1479.53 -9.07203L1430.62 -9.07203Z" fill="#3C82EA"/>
<path d="M1353 210.99V259.896L1401.91 210.99H1353Z" fill="#3C82EA"/>
<path d="M1287.01 559.301L1238.06 510.346L1237.96 608.352L1278.81 567.505L1287.01 559.301Z" fill="#1758C3"/>
<path d="M1381.91 119.242V168.147L1430.82 119.242H1381.91Z" fill="#3C82EA"/>
<path d="M1188.96 21.5386L1237.87 21.5386L1188.96 -27.3669V21.5386Z" fill="#3C82EA"/>
<path d="M944.797 -27.3669V21.5386L993.702 -27.3669L944.797 -27.3669Z" fill="#3C82EA"/>
<path d="M1382 119.127V168.032L1333.1 119.127H1382Z" fill="#1758C3"/>
<path d="M1333.19 119.127V168.032L1284.29 119.127H1333.19Z" fill="#1758C3"/>
<path d="M1286.94 461.408L1335.92 510.397H1253.71L1286.94 461.408Z" fill="#1758C3"/>
<path d="M1238.03 510.397V461.409H1286.94V510.397H1238.03Z" fill="#1758C3"/>
<path d="M140.531 503.458V457.916L94.9896 503.458H140.531Z" fill="#3C82EA"/>
<path d="M3.9142 503.458H49.4561L3.9142 457.916L3.9142 503.458Z" fill="#3C82EA"/>
<path d="M49.4517 503.458H94.9941L49.4517 457.916L49.4517 503.458Z" fill="#1758C3"/>
<path d="M92.1138 503.458H137.656L92.1138 457.916V503.458Z" fill="#1758C3"/>
<path d="M3.91309 640.723H-41.6291L3.91309 595.181L3.91309 640.723Z" fill="#3C82EA"/>
<path d="M3.91309 548.997H-41.6291L3.91309 503.455L3.91309 548.997Z" fill="#3C82EA"/>
<path d="M232.194 28.3606L323.278 28.3606L232.194 -62.7233V28.3606Z" fill="#3C82EA"/>
<path d="M141.435 28.3606L232.519 28.3606L141.435 -62.7233V28.3606Z" fill="#3C82EA"/>
<path d="M54.2727 28.3606L145.355 28.3606L54.2727 -62.7233L54.2727 28.3606Z" fill="#3C82EA"/>
<path d="M141.435 119.771L232.519 119.771L141.435 28.6881V119.771Z" fill="#3C82EA"/>
<path d="M-35.7669 176.438L-35.7669 316.185L103.98 176.438L-35.7669 176.438Z" fill="#3C82EA"/>
<path d="M4.18105 119.932L4.18105 -19.251L143.365 119.932L4.18105 119.932Z" fill="#3C82EA"/>
<path d="M186.976 74.228L232.196 119.447V29.0083L186.976 74.228Z" fill="#1758C3"/>
<path d="M141.896 119.921L94.5399 168.259H186.199L141.896 119.921Z" fill="#1758C3"/>
<path d="M124.984 95.6379L124.984 4.55402L33.9004 95.6379L124.984 95.6379Z" fill="#1758C3"/>
<path d="M85.2061 405.387L85.2061 314.304L-5.87718 405.387H85.2061Z" fill="#1758C3"/>
<path d="M1381.91 -9.03589V39.8696L1430.82 -9.03589L1381.91 -9.03589Z" fill="#3C82EA"/>
<path d="M1335.99 608.576V559.671L1384.9 608.576H1335.99Z" fill="#1758C3"/>
<path d="M1287.08 657.5V608.595L1335.99 657.5H1287.08Z" fill="#1758C3"/>
<path d="M1287.08 608.576V559.671L1335.99 608.576H1287.08Z" fill="#1758C3"/>
</g>
</g>
<defs>
<clipPath id="clip0_107_7971">
<rect width="1440" height="638" fill="white"/>
</clipPath>
</defs>
</svg>
