<svg xmlns="http://www.w3.org/2000/svg" version="1.1" xmlns:xlink="http://www.w3.org/1999/xlink" width="1000" height="1000"><g clip-path="url(#SvgjsClipPath1838)"><rect width="1000" height="1000" fill="#2a2a2a"></rect><g transform="matrix(19.51219512195122,0,0,19.51219512195122,100,109.7560975609756)"><svg xmlns="http://www.w3.org/2000/svg" version="1.1" xmlns:xlink="http://www.w3.org/1999/xlink" width="41" height="40"><svg width="41" height="40" viewBox="0 0 41 40" fill="none" xmlns="http://www.w3.org/2000/svg">
<path d="M0.303711 7.05067L11.6288 11.7828C11.6288 11.7828 11.2582 16.0976 11.9676 17.0303C12.5981 17.5951 14.2795 18.0286 15.0808 17.3586C15.8821 16.6887 16.9987 15.0073 17.1431 13.4179C17.2877 11.8284 17.1695 11.0665 16.6966 9.73981C16.2237 8.41301 16.6703 7.03372 17.3402 6.52144C18.0102 6.00916 18.9165 5.23418 18.9165 5.23418C18.9165 5.23418 15.2647 5.39183 12.4142 10.0156C11.2057 9.58216 1.55068 5.51871 1.55068 5.51871L20.4018 0.66724L39.3124 5.38301L28.3744 10.0769C28.3744 10.0769 26.9646 7.05566 24.3461 6.0048C23.558 5.62824 22.6647 5.38301 22.6647 5.38301C22.6647 5.38301 21.2372 5.68078 20.4754 7.13446C19.7135 8.58825 22.9537 11.4868 23.0763 11.5919C23.1989 11.6971 25.2219 12.9493 26.4304 13.4749C27.6388 14.0003 28.8912 14.5345 29.1627 15.1124C29.2151 14.298 29.1714 13.1683 28.9612 11.6182C29.9771 11.1804 40.5 6.77548 40.5 6.77548L37.3201 27.7931L21.8875 39.2762L21.7933 22.8605C21.7933 22.8605 25.8085 22.1468 27.306 19.594C27.3279 19.0555 26.0888 17.2383 24.0615 17.4703C22.0342 17.7025 21.0005 18.2388 20.4018 18.7052C19.8033 19.1714 17.6095 20.7938 17.1563 20.9711C16.7031 21.1485 15.9084 21.4046 15.1859 21.2075C14.9429 21.1156 15.2709 21.4571 15.3598 21.5032C15.4486 21.5491 17.3796 22.7773 19.1464 22.9218C19.1464 23.9398 19.2274 39.4141 19.2274 39.4141L3.45107 27.7887L0.303711 7.05067Z" fill="white"></path>
</svg></svg></g></g><defs><clipPath id="SvgjsClipPath1838"><rect width="1000" height="1000" x="0" y="0" rx="300" ry="300"></rect></clipPath></defs></svg>